P3
64 64
255
212 183 182 212 184 183 211 183 183 210 183 184 210 182 184 208 182 184 209 182 185 211 184 186 212 184 187 211 183 187 208 182 187 202 177 187 195 174 186 189 170 186 185 168 186 177 164 185 169 160 184 164 157 184 158 155 184 154 152 184 149 150 184 143 147 183 135 144 183 128 141 183 121 138 182 115 135 182 108 132 181 101 129 181 95 126 180 91 125 180 85 122 180 77 119 179 71 117 178 66 115 178 62 114 178 58 112 177 53 110 176 48 108 176 45 107 176 42 106 175 39 105 175 38 105 174 39 105 174 41 105 174 44 106 174 46 107 174 47 107 173 47 107 173 48 107 173 49 108 173 50 108 173 50 107 173 51 108 173 51 108 173 48 106 172 43 105 172 41 104 171 37 103 171 29 101 170 22 99 169 17 97 169 13 97 168 12 96 168 14 96 167
219 188 184 220 189 185 220 189 186 219 189 186 217 187 186 215 186 186 213 185 186 212 185 187 214 186 189 215 187 189 213 185 189 210 183 189 206 181 189 204 180 189 198 176 189 188 171 188 180 166 187 173 162 186 166 159 186 159 156 186 151 152 185 145 149 185 137 146 185 131 143 185 126 141 185 120 138 184 114 136 184 112 135 184 109 133 184 102 130 184 93 127 183 84 124 182 79 121 181 73 119 181 67 117 180 63 115 180 59 114 179 55 112 179 52 111 178 50 110 178 49 110 178 50 110 177 51 111 177 53 111 177 57 112 177 61 113 177 62 114 178 62 113 177 63 114 177 67 116 178 67 116 177 64 114 177 61 113 176 56 111 176 46 108 174 36 104 173 29 102 173 23 101 172 19 100 171 17 99 171 15 99 171 13 98 171 14 98 170 17 98 171
225 193 185 226 193 186 225 193 187 225 194 188 224 193 188 221 191 188 217 188 187 213 185 187 210 183 187 207 182 187 205 181 188 202 179 188 198 177 188 195 175 188 191 173 189 187 171 189 182 168 188 175 164 188 169 161 188 162 158 188 155 155 187 149 152 188 143 150 188 135 146 187 128 144 187 124 141 187 119 140 187 116 138 187 114 137 187 112 136 186 108 134 186 102 132 186 93 128 185 82 124 184 77 122 184 76 121 183 70 119 182 67 118 182 67 118 182 69 118 182 75 121 182 81 122 183 84 124 183 88 125 183 90 126 183 95 128 184 93 127 183 89 125 182 89 125 182 84 124 182 73 120 180 60 115 178 47 110 177 37 107 176 29 105 175 26 103 175 23 103 174 20 102 174 17 101 173 15 101 174 13 100 173 12 100 173 10 99 172 10 99 172
233 199 187 233 199 188 232 199 189 232 198 189 232 198 190 231 198 190 230 197 191 227 195 190 224 193 190 222 191 191 219 190 191 214 187 191 208 183 191 201 179 190 195 175 190 189 172 190 184 170 190 179 167 190 173 164 190 168 162 190 164 160 190 160 159 191 158 158 192 155 156 192 149 154 192 142 151 191 134 147 190 128 145 190 123 142 189 115 139 188 107 136 188 101 133 188 94 130 187 87 127 186 83 126 186 84 126 186 85 126 186 87 127 186 90 128 186 96 130 187 99 131 186 98 130 186 94 129 185 92 128 185 88 126 184 84 125 183 78 123 183 72 121 182 65 119 181 56 115 180 47 112 179 40 110 178 34 108 178 29 106 177 25 105 177 22 104 176 20 103 176 18 103 175 16 103 175 13 102 175 11 101 175 9 100 174 8 100 174 8 100 174
237 203 189 237 203 189 237 202 190 237 202 190 236 201 191 234 200 191 233 200 191 232 199 192 231 198 193 228 196 193 226 195 193 222 192 192 217 189 192 213 187 192 210 185 193 205 182 193 201 180 193 197 178 194 191 175 194 185 172 194 179 169 194 171 165 194 163 161 193 157 158 193 153 157 193 150 156 194 148 155 194 142 152 193 136 149 193 127 146 192 118 142 191 113 140 191 113 139 191 114 139 191 117 141 192 119 141 192 116 140 191 115 139 191 111 138 190 106 135 190 102 134 189 99 132 188 94 130 187 84 127 186 73 123 185 64 120 183 55 117 182 45 114 181 38 111 180 32 110 179 28 108 179 25 108 179 21 107 178 21 106 178 25 107 178 25 107 178 23 107 178 28 108 179 33 109 179 30 108 179 28 108 179 31 108 179 34 109 178 38 110 178
242 206 189 242 207 190 243 207 191 243 207 192 241 206 192 240 205 193 237 202 193 234 200 192 231 198 193 228 196 193 226 195 193 225 194 193 222 192 193 218 190 193 215 188 193 211 186 194 206 183 194 201 180 194 195 177 194 190 175 195 184 173 195 179 170 195 172 167 195 164 163 194 156 159 194 150 157 194 147 156 194 144 155 195 140 153 195 138 151 195 137 150 195 131 148 194 122 144 193 118 143 193 117 142 193 122 144 194 126 146 194 124 145 194 122 144 194 118 142 193 111 139 192 104 136 191 95 133 189 86 129 188 78 126 187 72 124 186 66 122 186 61 120 185 57 119 184 53 117 183 50 116 183 48 115 182 46 115 182 49 115 182 52 116 182 52 116 182 54 117 183 59 118 183 64 120 183 68 121 184 71 122 184 68 121 183 66 120 182 64 119 181
245 208 189 245 208 190 246 209 191 246 210 192 246 210 193 245 209 194 244 209 195 243 208 196 241 206 196 237 204 196 234 201 196 232 199 196 229 198 196 227 197 196 225 195 196 223 194 197 219 192 196 215 189 197 210 186 197 202 182 196 193 178 196 186 174 196 180 171 197 173 169 197 167 166 196 161 163 196 159 162 197 158 162 198 155 161 198 155 160 198 157 161 199 151 159 199 145 156 198 140 153 197 132 150 196 121 145 195 113 142 194 108 140 193 106 140 193 104 139 193 101 137 193 96 135 192 94 134 191 94 134 191 95 134 190 99 135 191 106 138 191 108 138 191 105 137 190 104 137 190 104 136 190 100 135 189 100 135 189 96 133 189 86 129 188 79 127 187 74 125 186 70 124 186 66 123 185 62 121 185 59 120 184 55 119 183 50 117 182 44 115 181
249 211 189 249 212 190 249 213 192 249 214 193 250 214 195 249 214 196 249 214 197 249 214 198 248 213 199 246 211 199 243 209 198 241 207 198 238 205 198 236 203 198 234 201 198 232 200 199 229 199 199 227 197 200 224 195 200 217 191 199 208 187 199 200 182 199 195 180 199 188 177 199 181 174 199 177 171 199 173 169 199 173 170 200 174 171 201 170 169 201 165 166 201 163 165 201 153 161 200 143 156 199 137 154 198 132 152 198 131 151 197 127 149 197 121 147 196 113 144 195 105 141 194 104 140 194 109 142 194 113 143 195 115 144 194 117 144 194 117 144 194 115 144 194 113 142 193 108 141 192 96 136 190 84 132 189 76 129 189 65 125 188 54 122 187 47 119 186 43 118 185 39 116 185 37 116 184 36 115 184 36 115 183 36 115 183 35 114 183 34 113 182
251 214 189 251 214 191 252 216 192 252 217 194 253 218 196 252 218 198 253 219 199 252 219 200 252 218 201 251 218 202 250 217 202 249 215 202 247 214 202 245 211 201 243 210 202 240 208 202 236 204 201 232 201 201 229 199 201 228 199 202 225 198 203 219 193 202 215 192 202 212 190 203 207 188 203 199 183 202 190 179 202 190 179 202 192 180 203 179 174 203 162 166 201 154 163 201 147 160 200 145 159 200 144 159 201 140 157 200 140 157 200 140 156 200 127 152 198 123 150 198 120 148 197 119 148 197 120 148 197 118 147 197 110 144 196 100 141 194 94 138 193 91 137 193 87 135 192 80 133 191 74 130 190 68 128 189 65 127 189 61 125 189 57 124 188 54 123 188 54 122 187 54 122 187 57 123 187 61 123 187 65 125 187 67 125 187 69 126 187 72 126 186
252 215 188 253 216 189 253 217 191 253 218 192 253 218 194 253 219 195 253 219 196 253 219 198 253 219 199 253 219 200 252 219 201 252 218 201 250 216 201 248 214 201 246 212 201 243 210 201 240 207 201 236 204 201 232 202 201 229 200 202 226 199 202 222 196 202 218 194 203 214 192 203 210 190 203 206 188 204 202 186 204 199 185 204 196 183 204 190 180 204 184 177 204 179 175 204 172 172 203 166 169 203 160 166 203 154 164 202 150 162 201 146 161 201 141 158 200 139 157 199 137 156 199 135 155 199 130 154 198 124 151 197 116 148 196 111 146 196 108 144 195 104 143 194 102 141 194 99 140 193 95 139 192 91 137 192 86 135 191 82 133 190 78 132 190 76 131 190 75 130 189 74 129 189 78 130 189 80 131 189 82 131 189 81 131 188 80 131 188 81 131 187
254 220 189 254 222 192 254 223 194 254 223 195 254 224 196 254 223 197 254 223 197 254 222 197 254 221 198 253 220 197 253 219 198 253 218 198 251 215 198 248 213 198 246 211 198 243 209 199 240 207 199 237 205 199 233 203 200 230 201 201 227 199 201 225 199 202 223 198 203 222 197 204 221 197 205 219 196 206 215 194 205 210 191 206 205 188 205 198 184 205 193 182 205 187 179 205 182 177 205 176 175 204 170 172 204 164 170 203 160 168 203 154 165 202 149 163 201 144 161 200 139 159 200 134 157 199 131 155 199 128 154 198 124 153 197 120 151 197 117 149 196 114 148 195 113 147 195 111 146 194 109 145 194 107 144 193 105 143 193 102 142 192 101 141 192 100 140 191 97 139 191 94 138 190 96 139 190 99 140 191 102 140 191 105 142 190 110 143 190 112 144 190
254 225 194 254 227 198 254 229 200 254 230 203 254 231 204 254 230 204 254 229 203 254 227 201 254 225 200 254 223 199 254 221 198 254 220 198 253 219 199 252 218 199 251 216 200 249 215 200 247 213 201 245 212 202 242 210 202 240 208 203 238 207 203 236 206 204 234 205 205 231 203 205 228 202 205 222 198 205 216 195 205 212 192 206 207 190 206 202 188 206 197 186 206 195 185 206 192 183 206 187 181 206 183 179 205 180 177 205 177 175 204 174 174 204 171 173 203 168 171 203 163 169 202 160 167 201 158 166 201 158 166 201 159 167 200 156 165 200 151 163 199 149 162 198 148 161 197 147 160 197 145 159 196 143 158 195 142 157 195 139 156 194 138 155 194 137 155 193 136 154 193 134 153 192 131 152 192 129 152 193 125 150 192 120 148 191 112 145 190 107 144 189
254 228 196 254 230 201 254 233 206 254 235 211 254 237 214 254 236 214 254 234 211 254 232 207 254 229 204 254 226 202 254 224 200 254 223 199 254 221 199 253 219 199 252 218 199 251 217 200 250 216 201 248 215 201 245 212 202 243 211 203 241 210 204 239 209 204 235 206 204 230 203 204 227 202 205 223 199 205 219 197 205 217 196 206 216 196 206 215 195 207 215 195 207 213 194 207 210 192 206 205 190 206 199 187 205 194 184 205 191 183 205 187 181 204 183 179 204 179 177 203 175 175 202 173 174 202 171 172 201 167 171 201 165 170 200 161 168 199 156 166 198 153 165 197 149 163 197 146 162 197 143 160 196 138 158 195 133 156 194 129 155 194 127 154 193 125 153 193 122 152 192 122 152 193 119 152 193 105 139 177 111 145 187 114 148 189 118 152 194 114 148 190
254 227 194 254 229 198 254 233 205 254 240 222 254 244 233 254 243 230 254 238 217 254 233 210 254 230 206 254 227 203 254 226 202 254 225 201 254 223 200 254 221 199 253 219 199 253 218 199 251 217 200 249 215 200 247 214 201 246 213 202 243 211 202 241 210 203 238 208 203 235 206 203 232 205 203 229 203 204 225 201 204 221 199 205 218 197 205 216 196 205 213 195 205 209 193 205 206 191 205 202 190 205 198 188 204 196 187 204 192 185 204 190 184 204 189 183 203 187 182 203 185 181 202 182 180 202 180 179 201 178 177 200 175 176 200 172 175 200 168 173 199 166 172 198 164 171 198 161 170 197 161 171 199 158 170 199 149 166 198 143 163 197 138 161 196 134 159 195 132 158 196 119 145 180 79 102 121 29 55 72 39 68 89 41 69 88 75 103 130 122 147 181
254 224 188 254 229 197 254 233 205 254 240 222 254 244 233 254 242 229 254 236 214 254 232 207 254 229 205 254 228 203 254 226 202 254 225 201 254 223 200 254 222 199 254 221 199 253 219 199 252 218 199 250 216 199 249 216 200 248 215 200 246 214 201 245 213 202 243 212 202 240 210 202 237 209 203 235 208 204 232 206 204 230 205 205 228 204 204 226 203 205 223 201 205 221 200 205 219 199 206 216 197 205 213 196 204 210 194 204 207 192 203 204 191 202 201 189 202 198 187 201 196 186 201 194 185 200 192 185 200 189 183 199 185 182 198 179 179 197 174 177 197 170 176 196 166 174 196 166 175 197 140 144 151 88 98 106 116 131 151 118 137 161 112 133 159 85 104 125 78 100 120 44 65 81 22 46 62 21 46 62 18 43 58 18 44 56 19 45 57 41 66 80
254 214 170 254 219 179 254 224 189 254 227 196 254 231 202 254 230 201 254 230 202 254 229 201 254 228 202 254 226 199 254 224 197 254 223 197 254 223 198 254 222 198 254 221 197 255 222 200 255 222 201 255 221 201 251 217 198 249 215 198 249 215 199 248 215 200 247 215 201 246 214 202 243 213 202 243 212 200 236 204 193 237 207 197 230 200 191 217 192 189 222 198 195 225 200 198 216 194 194 220 198 198 220 198 198 213 194 196 212 193 196 206 191 196 202 191 199 199 189 198 197 189 197 196 188 197 194 187 196 191 186 195 188 184 194 184 182 193 179 180 191 180 182 193 177 179 191 115 120 122 44 56 59 31 47 59 32 51 61 26 50 59 22 48 58 19 44 57 18 43 57 23 46 63 23 47 63 18 44 60 18 44 59 21 45 59 23 46 59 19 42 54
253 216 175 253 219 181 254 224 189 254 226 192 254 226 193 254 226 194 255 228 197 255 227 197 255 227 198 255 224 194 254 221 189 254 221 190 255 222 193 255 223 195 255 221 194 222 189 160 196 164 135 198 168 143 252 217 194 255 218 197 251 216 195 249 215 196 246 213 195 241 209 193 236 205 189 230 200 185 225 197 184 214 189 180 207 185 178 204 183 179 208 186 183 214 191 186 218 194 190 223 198 193 222 198 194 216 195 192 215 195 193 213 194 193 212 194 193 210 193 192 206 190 190 201 187 188 201 187 188 201 187 188 197 185 186 195 184 185 194 185 186 165 159 161 100 101 104 42 52 60 35 49 61 38 53 65 33 50 63 28 48 58 24 47 56 22 46 55 21 45 56 24 47 60 22 46 59 18 43 57 17 42 55 19 42 56 21 42 57 21 41 55
241 195 145 243 198 150 245 202 156 246 205 160 246 206 163 246 206 165 248 211 172 247 211 174 247 211 175 249 214 181 249 215 182 246 211 178 245 210 178 247 213 184 206 174 141 130 102 63 115 90 58 107 87 61 154 132 109 212 183 162 220 191 173 209 183 167 198 175 161 186 167 156 180 164 156 172 160 156 167 158 157 159 153 156 153 151 157 149 149 157 142 145 155 140 144 155 150 152 161 154 155 163 156 156 164 149 151 161 148 152 162 147 151 162 156 157 166 157 158 166 137 146 159 122 137 154 128 142 157 136 147 160 128 142 156 131 145 161 132 140 149 73 74 65 43 51 53 44 56 57 35 52 55 34 52 56 30 50 56 25 46 54 23 44 55 20 42 54 21 45 53 28 51 55 24 48 55 18 42 52 15 39 51 18 40 52 21 42 54 22 43 54
240 197 151 241 198 152 242 200 154 244 202 158 244 204 162 243 204 162 242 201 159 241 201 159 229 186 139 220 175 126 219 177 132 225 186 149 226 188 154 192 155 112 138 109 67 128 103 63 117 97 63 107 92 63 98 85 57 120 105 79 163 143 121 164 146 132 181 166 159 178 165 160 166 155 151 158 150 148 143 140 141 144 143 146 123 123 124 107 111 115 125 132 143 129 141 158 128 142 164 124 140 162 117 135 158 113 133 157 110 131 156 108 130 156 105 129 155 103 128 155 100 123 147 90 112 133 80 106 127 86 113 139 83 112 141 90 106 107 101 95 56 65 67 48 46 57 53 56 64 50 34 52 51 32 51 54 30 51 53 24 45 51 23 44 51 30 49 50 33 54 52 27 50 52 26 50 52 24 47 52 15 39 48 22 44 51 21 41 51 19 40 49
215 183 147 243 211 178 255 232 204 255 240 219 255 244 229 255 244 227 255 236 212 245 215 181 201 156 100 186 141 85 185 142 89 198 161 118 177 145 99 143 113 62 134 108 61 133 110 63 121 102 62 110 96 61 107 95 59 97 88 55 86 80 54 84 80 58 97 94 74 99 95 75 89 86 65 79 80 64 66 70 59 68 72 61 61 64 53 65 66 51 62 66 59 61 72 75 86 101 114 107 127 150 114 139 171 112 138 170 108 136 170 106 137 175 103 135 171 99 134 173 95 130 168 88 124 161 80 119 155 88 118 139 112 116 94 98 89 48 64 67 46 40 54 50 55 65 48 45 59 49 30 50 50 29 49 51 31 50 52 29 47 48 43 54 47 43 56 48 32 53 49 28 51 50 25 50 50 22 46 50 15 40 47 20 42 49 24 45 50 21 44 48
115 91 48 146 118 70 195 166 122 195 165 120 186 155 107 206 178 140 239 215 188 233 202 171 209 175 139 196 165 128 182 151 105 160 130 79 121 99 53 123 102 55 128 107 56 127 106 57 108 93 55 102 91 56 98 90 57 96 89 56 89 85 56 91 86 55 81 80 54 77 77 54 75 76 54 74 76 56 71 74 55 83 80 52 72 74 52 56 64 52 52 62 52 47 57 51 46 56 49 49 61 54 71 83 76 72 81 74 63 77 77 84 96 92 65 78 76 72 92 99 80 99 105 71 90 93 80 95 86 110 101 45 96 87 37 53 63 44 71 74 42 51 63 44 50 62 44 47 60 45 49 62 44 57 66 44 56 64 43 44 58 44 33 50 44 27 43 47 35 49 47 46 57 45 40 56 45 27 48 46 18 41 45 16 40 44 20 44 45 24 47 46
104 88 61 110 92 62 121 100 65 139 113 78 160 132 96 168 140 105 186 159 128 198 169 138 180 152 120 161 137 109 160 138 112 162 142 117 153 136 114 153 136 114 143 129 106 136 125 103 130 121 100 123 117 96 118 114 92 121 114 90 120 113 85 120 111 77 114 106 70 110 102 62 98 94 54 83 84 49 78 81 50 82 83 50 69 75 49 59 69 49 59 69 48 79 81 45 71 74 42 56 66 44 66 71 39 58 65 40 50 59 41 57 62 38 63 66 35 49 57 34 42 52 36 55 60 34 64 67 34 48 59 39 42 56 40 52 64 41 64 71 40 55 66 40 53 64 40 50 63 39 62 70 39 65 72 40 70 75 39 61 70 39 35 54 41 31 50 42 60 66 38 75 72 36 61 60 41 38 46 46 24 41 46 20 40 44 15 38 42 19 43 43
133 122 102 170 152 135 204 179 157 228 199 174 248 220 195 253 228 205 251 225 201 247 218 194 238 209 187 225 199 181 215 193 180 214 194 182 209 191 182 201 186 177 177 171 165 152 155 154 141 148 149 133 144 146 130 143 146 130 143 147 130 144 146 127 142 142 129 141 138 132 139 133 145 141 126 170 144 105 106 99 53 96 94 41 91 90 40 82 83 40 66 71 39 80 80 35 78 77 33 59 65 37 73 75 35 63 69 36 52 62 38 55 63 37 53 60 37 43 55 38 44 54 38 36 50 37 38 50 37 31 46 38 35 49 38 39 53 39 46 57 38 54 63 37 46 58 37 42 57 38 43 59 38 53 66 37 61 71 36 54 67 36 51 64 36 53 64 35 69 74 33 77 76 32 58 62 36 41 50 40 23 39 42 23 41 40 20 39 39 19 38 40
79 69 35 114 99 63 178 154 122 234 205 176 255 230 204 255 234 211 254 227 203 245 216 192 230 202 182 217 193 175 205 184 169 196 177 159 160 145 123 126 114 89 117 110 87 118 116 98 117 119 105 100 104 88 92 98 84 112 116 99 112 120 111 116 130 127 140 148 143 157 153 138 160 148 118 152 134 80 120 108 39 119 106 33 99 90 32 76 70 35 39 48 35 38 52 33 38 51 33 39 51 32 80 76 28 47 54 34 36 50 32 30 44 33 32 47 35 42 56 37 36 51 37 37 53 37 48 62 36 42 58 35 34 51 35 28 46 35 37 52 36 30 48 35 28 46 35 27 46 35 38 54 36 46 60 35 55 67 33 46 61 32 42 58 33 41 58 33 60 69 32 55 65 33 45 57 39 64 70 44 52 63 53 40 57 56 31 54 57 24 47 58
63 59 31 68 61 30 76 67 31 108 94 56 156 137 100 170 150 110 151 132 92 160 139 107 167 146 116 121 107 73 101 91 55 94 84 48 76 66 35 74 65 37 69 62 36 62 60 31 67 65 31 56 58 28 51 55 28 54 56 28 50 54 32 60 65 41 88 86 52 102 94 37 87 83 27 80 78 26 67 68 31 81 75 29 67 67 26 50 56 33 36 47 33 32 45 34 32 47 31 74 76 23 92 86 19 71 70 24 49 55 32 32 47 32 26 42 30 27 40 32 30 47 33 35 54 33 60 72 32 56 68 31 57 69 30 37 54 30 35 53 31 36 53 31 47 62 32 49 63 32 45 60 32 49 64 30 43 59 29 59 69 28 57 66 28 53 60 30 59 60 33 32 39 38 48 60 61 47 82 91 31 76 92 20 70 91 9 66 90 6 60 88
60 56 35 60 56 34 62 57 33 65 58 32 63 57 27 67 59 28 71 62 28 71 62 28 80 71 32 79 70 25 96 82 19 85 75 24 72 67 31 70 66 32 66 65 32 69 68 31 68 67 30 51 56 31 49 54 34 43 51 32 48 56 31 48 56 29 38 48 27 48 55 26 49 55 27 42 51 30 64 67 23 88 80 19 62 64 25 42 55 26 39 52 28 27 43 30 46 57 26 74 74 18 72 72 19 85 76 21 52 57 28 33 46 30 34 48 31 31 45 31 25 36 31 41 51 30 73 80 24 77 82 24 81 85 22 76 82 23 51 64 25 57 69 24 67 76 23 68 75 23 55 65 26 79 82 23 87 86 24 88 85 25 68 66 30 51 52 35 44 43 38 34 37 37 29 34 38 15 43 58 10 52 75 12 47 68 4 56 86 4 59 91
59 54 42 63 56 45 60 54 40 57 52 35 59 53 38 56 52 34 58 54 33 57 52 33 49 49 29 54 52 29 64 58 31 58 55 31 52 51 31 51 51 31 59 59 29 58 60 29 46 53 29 44 52 29 43 50 31 41 50 30 49 56 29 40 51 30 48 57 29 49 58 27 44 54 27 55 62 24 64 65 20 50 50 34 51 55 28 37 50 26 27 44 26 28 45 25 48 56 24 49 55 24 83 78 19 91 84 11 55 62 21 40 53 28 35 46 32 32 41 35 31 43 33 30 43 30 43 55 27 45 58 23 33 49 25 61 69 22 83 84 26 76 77 41 83 83 56 90 94 66 82 93 75 78 94 78 74 97 81 66 94 83 50 82 78 40 70 68 33 55 58 31 46 50 23 41 50 13 44 61 9 49 73 8 49 74 7 55 83 7 59 90
59 53 44 65 58 49 71 64 52 61 55 45 59 52 42 61 53 42 56 50 38 56 49 36 52 47 34 51 46 34 52 47 36 51 46 37 59 52 41 65 56 44 54 51 39 48 49 36 41 46 36 41 48 37 46 52 40 56 58 41 53 58 38 48 55 33 40 51 29 37 50 26 42 54 24 39 51 25 42 53 25 55 59 25 45 51 29 34 49 25 29 45 24 21 38 25 39 50 24 95 89 12 100 92 8 60 65 16 37 50 22 40 53 24 42 57 26 32 46 29 25 39 30 23 40 29 19 38 26 22 41 27 35 50 34 58 65 58 71 77 78 60 80 83 47 81 84 38 84 86 29 80 84 20 73 80 15 65 76 12 60 73 10 60 75 8 58 76 6 54 75 3 49 74 1 50 79 2 56 88 2 57 88 3 57 87 4 58 90 4 60 93
66 60 50 77 69 55 66 61 50 59 54 45 50 46 39 48 46 39 49 48 42 53 52 46 51 52 46 50 52 47 51 53 49 52 55 51 55 59 55 56 59 56 51 56 52 50 57 55 50 61 59 50 64 62 55 69 65 61 74 70 68 75 72 83 82 78 86 80 72 83 76 61 66 64 46 55 60 29 65 69 18 76 75 14 47 55 23 40 52 22 36 49 22 36 50 23 74 76 15 95 89 8 67 69 15 43 54 20 39 51 21 44 55 20 48 58 21 43 55 22 41 52 21 47 56 21 37 46 20 29 42 23 53 61 60 70 83 93 52 81 92 35 73 84 22 62 75 19 57 71 19 58 74 17 59 76 17 58 75 26 36 39 10 50 67 8 57 79 19 60 75 37 69 67 46 67 54 29 54 51 16 55 70 2 58 90 4 59 90 5 61 93
43 44 38 50 50 43 38 41 37 40 44 41 43 47 44 49 53 50 60 64 62 75 77 76 78 81 81 79 82 83 81 85 86 79 85 88 77 85 88 73 83 86 71 82 87 67 82 88 62 81 86 58 81 85 57 84 85 62 92 88 68 97 92 79 103 97 92 105 100 110 109 103 125 109 99 116 95 78 82 71 46 70 69 17 56 62 15 71 73 12 72 75 12 40 53 19 70 71 14 86 82 10 67 69 14 51 58 17 61 66 15 75 75 11 83 80 9 87 82 8 88 83 7 72 71 11 49 54 18 35 43 23 33 42 28 42 56 55 46 71 82 41 70 79 32 70 80 20 62 77 14 57 76 11 58 79 24 52 60 16 17 19 13 23 27 87 85 33 120 104 17 111 95 10 75 69 12 46 48 15 29 42 31 12 57 75 6 61 90 3 62 95
33 41 37 36 43 41 42 49 47 49 55 54 60 66 65 74 79 78 87 89 89 98 98 97 100 100 101 96 98 101 96 100 102 93 99 103 87 96 101 82 93 100 79 92 100 73 89 98 70 87 96 64 84 95 62 85 95 65 89 96 65 88 94 65 87 92 66 87 91 69 88 92 84 98 97 118 111 104 130 105 90 98 79 56 70 68 23 71 74 10 74 76 9 54 61 13 52 60 14 72 73 11 76 75 10 77 77 10 94 88 6 93 86 6 87 82 7 85 81 8 63 66 11 54 60 12 64 68 9 59 63 15 65 65 17 52 55 18 46 56 40 49 71 78 43 77 92 34 73 81 40 69 61 62 77 42 74 59 31 10 12 15 8 12 13 82 76 6 104 94 4 86 80 10 58 61 15 35 46 18 28 41 17 25 38 19 25 44 32 23 54 53
43 53 51 47 57 57 54 64 65 64 72 73 78 84 84 90 93 92 103 102 99 112 107 102 108 106 103 104 104 103 103 104 103 96 100 102 91 97 102 84 93 100 79 90 98 74 87 96 71 85 94 63 80 90 61 78 89 59 76 87 58 73 85 58 71 83 58 71 83 61 74 85 68 97 96 82 105 99 112 110 103 136 107 87 109 83 60 77 70 22 78 78 8 79 79 7 72 74 8 99 94 4 92 88 4 89 85 5 92 87 5 70 71 9 71 71 10 89 83 8 88 82 9 113 98 6 130 109 4 124 104 5 99 89 7 85 78 10 72 70 11 56 61 24 84 80 41 125 107 24 143 114 7 118 97 7 58 46 23 25 26 12 41 38 10 102 91 6 106 93 5 90 80 8 64 65 12 46 53 15 31 43 17 25 40 17 24 39 16 27 40 15
54 66 68 56 68 70 60 72 74 70 79 82 79 85 87 89 92 91 107 104 97 108 104 98 102 100 97 102 101 98 94 97 97 90 95 97 86 93 96 78 87 93 74 84 91 69 80 88 65 78 87 59 74 84 57 73 83 54 70 81 53 69 80 53 69 79 55 70 80 57 74 82 62 94 92 70 104 97 84 97 92 119 103 92 129 95 70 89 69 47 80 76 13 90 88 5 77 78 6 76 77 6 68 72 6 51 59 9 69 71 7 96 88 4 114 99 4 123 103 5 124 104 4 101 88 7 79 71 12 79 71 10 78 71 11 113 92 10 141 109 8 149 113 9 154 117 5 129 105 3 103 91 4 90 79 8 50 47 11 89 79 6 48 47 12 91 79 5 92 73 9 78 67 9 57 55 10 88 68 19 72 62 14 55 54 14 52 53 16 37 46 17
56 70 71 57 70 73 61 74 76 70 80 82 80 86 86 91 92 89 96 95 91 92 93 90 93 94 91 86 90 89 85 90 90 79 87 89 73 82 86 73 82 86 67 78 83 62 73 80 58 71 79 56 69 78 54 68 77 51 66 75 53 68 77 55 72 80 56 73 81 55 72 79 57 80 82 68 95 90 95 100 95 112 98 86 102 76 56 102 74 54 85 75 22 83 82 5 75 77 7 59 65 8 62 68 8 70 72 8 83 80 7 109 96 4 108 93 5 74 69 10 91 82 6 85 79 7 79 74 9 83 77 8 112 92 8 145 105 8 132 95 8 119 97 6 118 86 29 84 61 30 102 74 32 80 61 31 43 39 18 74 62 16 52 43 22 76 62 25 69 61 15 68 66 7 50 54 8 40 42 10 41 45 9 42 43 10 45 44 12 44 46 17
59 72 74 58 72 73 60 73 74 66 77 78 76 83 81 78 83 81 77 83 82 86 88 85 78 84 83 72 80 81 75 82 82 68 78 80 68 78 80 62 74 78 58 71 76 60 72 76 51 64 70 49 63 70 47 61 67 46 60 66 45 58 65 45 58 65 52 71 75 60 87 85 64 92 89 79 98 92 103 99 81 59 55 31 57 54 18 80 69 22 97 86 11 85 82 5 76 76 6 105 91 7 137 111 6 152 126 4 120 101 6 90 80 7 77 69 9 81 71 9 81 74 7 74 68 7 77 67 10 112 89 9 140 102 9 118 80 11 98 70 11 95 78 9 85 59 30 96 63 36 88 62 40 40 36 36 23 23 24 22 24 22 41 37 34 39 35 34 30 30 23 49 51 11 47 52 7 30 35 7 32 38 8 27 32 7 22 30 7 31 42 12
58 72 72 56 70 71 58 71 72 60 72 73 64 74 74 64 74 74 73 79 77 71 78 77 68 77 76 67 76 76 65 75 76 67 77 77 57 69 73 53 67 71 61 72 74 52 64 69 49 62 67 49 62 67 46 59 64 45 59 64 44 60 64 49 70 70 59 83 81 73 98 93 83 98 89 77 78 39 69 67 16 71 69 9 100 88 7 114 96 5 102 90 5 108 94 5 127 103 6 134 104 6 142 114 5 140 116 3 119 97 6 104 85 9 117 94 7 123 98 6 128 101 5 142 108 6 160 117 8 149 116 6 138 112 5 110 92 6 96 82 7 98 84 9 78 60 23 96 63 32 67 49 29 53 45 24 41 33 20 52 42 22 56 45 32 52 42 34 34 34 17 37 42 10 42 47 11 42 46 8 28 36 7 34 38 7 48 49 6 75 71 8
53 67 68 53 67 68 53 67 68 56 68 69 58 69 70 60 71 71 64 73 72 64 74 73 63 73 72 60 71 71 61 71 71 51 64 67 51 64 67 57 68 69 52 64 67 51 64 67 50 63 66 47 61 64 51 71 72 54 77 77 62 87 84 74 91 88 88 95 88 110 106 83 92 85 48 59 58 6 84 77 7 111 96 4 94 84 5 90 82 5 93 85 5 118 101 4 121 101 4 113 99 4 100 91 5 125 101 5 137 103 6 110 85 6 136 101 7 160 114 9 164 117 8 172 128 6 132 105 6 83 78 5 60 60 7 54 53 9 56 54 10 55 54 15 57 51 30 49 39 33 75 60 20 83 72 7 56 45 18 66 48 26 62 45 29 46 36 27 30 28 24 21 24 18 18 27 10 21 31 9 20 30 9 21 30 10 78 73 9 114 98 7
53 67 67 52 66 66 51 65 66 55 67 67 57 68 68 59 70 69 57 68 67 53 65 65 50 63 64 51 63 64 47 61 63 55 67 68 58 69 69 51 64 66 50 64 66 53 65 66 48 60 62 47 62 64 56 78 77 76 93 90 95 99 92 79 73 57 81 73 26 77 72 9 74 70 6 104 91 6 113 99 4 102 91 5 89 83 5 80 76 6 107 94 4 117 98 5 126 103 4 85 78 7 108 82 9 96 73 9 116 86 9 150 109 8 149 112 5 159 113 10 167 122 8 132 105 5 76 66 7 68 56 11 51 44 14 56 51 16 68 55 28 64 57 22 78 69 21 59 53 27 79 67 27 50 45 23 33 31 23 32 32 19 28 26 20 41 35 29 29 27 27 32 30 28 24 27 19 17 24 11 17 27 9 15 26 9 36 43 15 61 62 15
55 67 66 53 66 66 56 68 67 61 71 69 55 67 65 48 62 61 43 58 59 45 59 60 49 62 62 60 69 67 62 71 68 55 66 64 52 65 64 64 74 73 70 78 78 66 75 76 62 73 73 67 78 78 81 90 89 117 114 107 70 58 41 79 68 15 83 78 4 89 82 5 98 88 4 83 78 7 55 60 10 72 74 7 76 75 7 90 82 6 119 99 4 129 97 8 134 100 6 144 108 7 115 85 9 108 77 13 164 118 9 148 109 8 135 97 10 154 110 10 131 106 5 78 67 7 82 69 9 106 88 8 103 88 11 123 90 28 69 49 35 40 36 31 40 38 18 44 45 13 65 62 14 58 51 25 52 45 35 69 54 38 88 61 38 74 53 34 47 40 23 43 43 20 32 37 18 38 43 20 26 29 23 22 26 21 25 33 20 32 42 18
74 79 72 70 76 70 59 67 62 49 60 57 42 55 55 51 63 60 56 66 62 67 73 68 84 86 79 85 90 85 84 89 84 77 83 78 89 88 79 74 70 61 105 95 67 100 91 47 76 76 46 96 94 69 108 97 52 94 80 30 82 72 15 80 77 7 83 80 6 90 85 4 85 82 5 64 65 8 70 67 9 82 74 8 87 73 8 112 90 6 135 101 5 144 96 14 139 96 12 157 114 8 158 115 8 149 113 6 147 114 7 147 111 11 150 118 10 131 107 7 114 97 7 108 92 6 115 97 7 124 101 7 121 95 14 102 65 32 69 48 30 34 30 29 27 25 24 30 33 17 40 45 16 77 74 14 87 77 17 95 81 21 105 78 30 99 67 32 105 81 16 74 68 17 32 34 20 29 33 16 32 34 24 27 28 28 22 25 25 24 31 21
71 75 66 49 58 53 42 53 51 55 64 59 68 73 65 72 75 68 98 98 93 113 111 105 100 97 90 80 77 69 83 77 66 67 60 49 75 66 40 80 69 15 109 91 3 118 99 0 103 88 2 111 93 1 118 98 0 122 102 1 122 103 3 101 88 6 97 88 6 110 96 4 125 103 3 130 103 4 122 97 4 128 96 6 132 99 6 127 96 7 138 103 6 147 107 7 151 110 8 154 113 8 155 117 6 128 104 6 128 105 5 101 87 7 75 68 8 67 58 11 73 64 10 91 79 8 120 98 7 130 106 6 89 76 10 60 49 15 93 63 27 47 38 20 52 47 15 65 60 12 78 77 8 95 87 10 107 76 35 53 45 28 49 44 27 41 35 21 53 46 16 44 42 15 37 36 25 28 28 24 25 30 17 29 35 24 27 33 26 27 31 29
56 63 57 60 66 60 79 79 68 96 92 79 114 109 97 128 119 105 89 82 71 62 57 46 47 43 33 40 37 29 44 40 32 46 42 33 72 63 19 96 84 5 98 86 5 109 91 4 129 103 3 133 106 3 132 106 3 132 105 4 135 108 4 125 105 2 126 106 2 130 105 4 145 115 4 148 115 4 142 111 4 121 95 5 116 93 5 129 97 7 131 96 8 146 103 13 139 101 13 161 124 9 129 106 5 114 88 11 94 66 11 45 40 11 29 27 13 47 37 16 89 74 12 108 91 7 98 81 8 61 55 10 52 50 15 85 65 24 113 75 35 98 66 32 97 70 23 110 90 7 95 81 10 101 71 24 76 51 32 31 28 25 34 33 27 40 36 34 59 46 36 69 50 34 72 53 29 54 44 24 35 34 22 51 51 18 41 48 17 34 43 18
109 100 80 77 77 66 86 86 77 114 111 103 119 113 104 88 82 71 47 42 32 43 39 30 38 36 29 42 38 31 45 41 31 61 56 22 72 66 14 59 57 16 63 63 9 91 82 5 99 85 5 109 91 5 105 89 4 127 103 4 129 103 5 138 108 5 142 110 5 151 115 7 133 105 4 106 82 7 79 63 7 71 62 7 67 57 10 74 60 12 131 99 12 151 117 8 118 96 5 88 78 7 58 54 10 49 37 16 62 41 18 47 37 16 62 51 16 93 74 12 116 93 10 109 87 9 73 57 12 51 43 15 79 60 24 115 77 34 112 72 38 116 78 33 108 86 19 90 82 7 74 69 12 80 62 20 83 54 26 40 32 24 29 28 22 26 25 24 45 37 31 89 62 39 97 66 36 80 57 29 78 63 22 98 84 16 88 76 22 62 57 23
108 97 77 113 102 82 109 101 86 97 92 81 58 54 44 31 30 24 40 37 28 45 42 28 54 47 27 80 66 21 94 79 11 99 84 6 109 90 5 98 84 6 86 79 6 75 73 6 69 70 5 80 74 5 113 90 7 160 117 8 152 116 6 132 100 6 123 89 8 114 85 8 81 64 9 68 48 22 84 54 28 95 65 25 114 84 20 147 119 9 132 111 4 97 82 5 57 49 8 39 35 14 38 32 21 45 35 24 52 40 24 66 54 19 104 86 10 108 92 5 82 72 5 70 64 6 61 52 16 80 60 26 102 82 12 76 68 9 92 78 15 95 87 8 72 74 5 42 50 6 59 53 15 72 55 28 50 39 28 44 34 24 27 24 20 28 25 22 28 29 20 42 40 23 59 47 36 69 55 35 74 66 20 70 67 15 64 63 15 71 67 17
125 116 104 87 81 68 50 46 34 48 43 30 45 42 26 52 49 18 75 67 12 102 84 7 128 101 6 138 108 3 134 105 3 133 104 4 118 95 4 116 94 3 125 100 3 115 92 5 107 85 7 130 99 7 153 112 7 132 103 5 118 92 6 104 80 7 71 59 8 56 43 19 57 43 30 72 52 38 104 68 41 137 87 37 140 106 13 113 87 7 70 57 8 50 40 12 38 30 17 38 31 23 49 39 30 59 45 33 88 60 33 112 88 14 105 93 4 77 66 6 42 38 10 31 33 11 31 35 13 50 42 25 59 44 26 47 39 19 69 59 13 67 57 11 52 45 10 32 30 10 47 35 18 55 39 26 42 34 28 62 45 29 53 39 28 80 54 32 71 52 32 35 35 22 45 42 24 48 44 32 38 37 23 42 43 19 36 41 16 41 46 16
80 73 50 51 46 28 44 40 28 40 37 27 52 47 23 73 65 12 103 85 5 110 87 5 118 93 5 119 95 4 107 87 4 97 81 5 121 96 4 117 90 6 121 88 10 148 104 10 168 121 9 120 94 5 71 63 5 54 49 7 59 51 10 57 47 18 53 42 27 66 49 35 84 59 39 107 70 41 118 75 40 128 79 39 126 82 25 85 59 10 60 43 18 57 41 26 56 42 30 73 52 34 83 57 36 102 66 38 118 82 31 127 97 20 78 60 24 59 45 19 61 45 26 49 40 30 48 41 29 49 41 28 55 44 35 61 47 36 76 54 35 85 57 33 87 57 27 83 54 23 80 52 25 98 62 30 102 65 33 95 62 33 57 43 33 64 46 29 58 43 30 36 32 32 39 37 22 52 51 18 47 45 20 35 36 17 32 38 16 35 43 16
40 40 12 42 43 13 47 44 16 63 58 14 66 63 12 74 67 7 76 64 12 52 47 17 77 67 9 88 77 5 92 78 6 121 93 8 149 107 12 151 103 18 168 121 12 167 125 7 136 102 8 87 65 12 54 45 15 57 44 27 70 52 36 82 58 40 90 62 40 95 64 40 116 74 40 117 74 38 103 66 35 128 79 40 124 79 33 111 76 22 112 72 33 97 66 34 113 76 34 126 81 40 113 73 39 108 69 36 112 84 20 122 80 38 63 46 35 49 39 30 72 53 34 86 60 39 100 67 39 78 55 36 79 57 35 87 62 36 60 44 32 48 39 35 68 52 28 97 67 25 93 61 31 95 62 32 111 70 36 64 46 31 28 25 23 29 26 21 38 31 24 35 31 31 36 34 33 42 42 19 61 57 15 46 43 18 33 32 25 36 36 22
23 28 13 29 33 14 40 43 11 63 60 8 55 55 10 38 42 12 46 45 16 79 69 10 100 81 8 112 87 8 136 96 12 164 112 18 172 125 15 152 115 8 116 92 4 113 90 6 117 91 8 120 92 12 103 67 28 116 72 37 126 78 39 113 72 37 122 76 38 131 82 40 123 76 38 96 61 33 80 54 32 86 58 32 125 87 26 141 106 16 124 95 14 123 96 13 105 85 9 104 74 26 101 66 36 99 65 35 92 62 32 93 62 35 88 59 34 105 69 36 71 51 34 69 51 36 88 59 34 88 62 28 115 86 17 103 82 18 50 41 24 29 26 24 29 26 25 58 43 29 54 41 25 58 44 26 86 57 34 45 37 32 31 29 25 24 23 16 27 25 21 38 34 33 36 32 33 29 28 27 33 32 24 51 47 18 55 50 19 63 54 22
29 33 13 24 30 15 27 34 16 37 43 13 56 58 10 74 66 10 110 82 10 134 99 8 142 100 10 160 103 17 168 114 15 149 111 10 125 100 6 93 75 7 58 48 8 55 46 10 57 44 12 59 46 12 95 65 20 113 69 32 89 58 32 109 68 35 124 77 38 121 76 37 118 73 37 94 60 33 93 62 27 117 84 19 136 111 8 99 88 3 77 70 4 60 58 5 60 48 10 69 46 18 87 56 28 103 68 32 57 42 25 56 41 24 88 58 26 79 53 27 71 51 32 68 49 33 40 35 32 42 37 31 62 55 14 58 59 9 42 41 17 28 25 20 34 30 27 36 32 21 45 38 29 36 32 29 47 36 25 56 43 23 46 39 27 27 26 24 20 19 16 29 27 25 36 33 33 35 33 30 31 30 24 44 42 26 59 58 11 75 67 17
64 61 7 70 64 9 96 79 8 117 91 9 125 92 10 139 98 11 111 75 13 103 73 10 143 96 17 167 117 12 140 108 6 110 87 7 87 65 9 51 40 10 39 31 11 30 27 9 28 26 11 33 28 14 47 38 19 78 53 29 99 64 34 118 73 36 121 75 37 124 77 38 118 74 35 131 91 24 134 96 12 109 76 13 101 74 11 69 58 7 55 46 10 68 46 16 90 52 19 89 52 16 70 45 20 73 57 17 68 58 12 74 61 12 73 56 15 91 60 28 120 77 37 82 57 34 34 31 28 32 30 28 24 25 14 31 30 19 30 29 19 32 30 22 38 35 34 31 28 24 37 32 28 34 30 19 35 32 15 48 39 16 42 35 18 29 28 27 17 19 11 17 17 13 28 26 26 29 28 26 28 27 17 26 27 26 23 30 13 26 35 9
123 97 5 143 108 8 163 116 14 172 120 16 161 115 12 129 95 8 125 88 13 156 112 16 167 126 12 144 113 6 120 98 4 119 96 8 98 77 12 47 37 13 28 24 10 26 24 11 32 28 17 41 34 23 49 39 29 59 47 34 78 56 36 99 64 35 125 77 37 107 67 34 121 82 22 114 86 6 97 71 14 81 55 30 64 44 23 77 52 17 79 54 17 94 62 17 96 64 12 82 56 11 76 48 17 81 59 20 110 89 9 98 86 5 77 66 10 84 57 24 89 59 31 51 39 25 34 30 23 32 30 28 24 23 17 27 26 22 28 27 23 28 28 17 35 33 28 34 30 25 35 30 24 31 28 14 28 26 12 23 20 12 21 19 15 24 24 21 19 21 13 19 19 14 21 20 17 25 25 25 26 28 18 27 26 24 21 26 19 16 24 8
129 97 8 158 113 16 156 118 12 133 105 7 133 108 5 142 111 7 163 117 13 141 110 7 107 86 6 89 73 5 84 72 5 92 78 6 93 78 9 62 52 14 33 27 15 35 29 18 44 36 27 50 40 31 56 45 34 62 49 36 69 52 36 76 54 34 114 72 37 132 84 33 125 92 11 83 60 15 81 55 27 78 53 29 68 47 22 98 59 23 107 68 19 92 64 13 68 54 8 45 37 9 44 35 14 57 42 25 93 66 22 64 55 11 50 42 13 41 32 16 47 36 18 38 31 18 32 28 21 29 27 26 29 26 23 27 24 20 36 32 30 35 31 26 40 35 28 42 36 32 43 38 35 37 34 29 27 27 14 31 28 21 29 26 23 24 23 16 22 27 12 21 25 11 20 23 11 23 24 20 25 26 22 21 22 17 18 23 12 17 22 12
155 113 11 137 106 8 86 75 4 55 52 4 61 54 5 115 87 8 147 110 9 105 82 7 65 55 6 46 43 6 49 47 6 53 52 6 56 52 9 47 43 14 42 34 20 44 36 26 50 41 30 56 45 34 62 50 37 68 52 36 65 50 36 92 62 37 92 62 36 105 70 35 117 75 28 60 42 22 66 47 23 78 64 14 104 79 11 98 63 17 89 68 9 74 60 7 62 52 8 35 33 8 33 31 14 51 41 31 55 42 33 37 31 24 25 22 11 30 27 12 36 30 13 37 30 18 38 32 19 41 35 21 36 30 22 31 26 23 36 30 25 37 30 26 41 34 29 41 35 30 37 33 30 37 34 31 30 30 18 33 33 23 31 31 24 30 33 18 25 27 15 20 26 9 25 32 8 28 33 10 26 31 15 25 26 23 20 22 17 22 24 16
120 91 8 95 78 6 59 49 8 55 43 10 103 70 13 152 108 13 128 97 8 79 61 7 44 39 8 34 32 8 35 35 8 36 37 8 38 37 11 39 35 15 41 34 21 47 38 27 53 42 31 57 45 34 65 50 35 83 58 36 81 57 35 78 55 33 102 67 34 115 76 32 96 63 27 77 53 24 78 61 16 97 83 7 90 70 7 83 58 13 68 55 11 54 46 8 69 55 11 69 59 9 53 47 14 50 40 26 39 31 24 36 29 22 37 30 20 38 31 20 43 34 20 47 36 19 69 53 17 85 72 9 67 56 14 44 37 21 38 32 25 41 34 28 44 36 30 42 35 29 36 31 26 40 35 31 43 36 30 41 36 33 33 33 16 27 35 11 29 34 17 24 28 13 19 24 9 22 27 9 20 25 9 26 29 19 23 24 19 22 23 15
103 84 6 75 62 6 76 59 8 120 88 10 150 112 7 132 103 5 107 83 6 62 49 7 36 32 9 29 26 9 31 29 11 30 28 11 32 28 14 38 32 19 45 36 25 51 41 29 56 44 33 59 46 34 71 54 32 86 65 29 118 87 23 117 86 23 126 96 19 132 102 15 121 90 18 113 80 22 115 90 14 107 85 9 81 61 9 68 50 10 69 47 19 98 65 23 117 88 14 114 94 10 82 72 7 68 61 8 54 47 16 46 39 23 44 35 24 66 48 29 86 61 23 96 71 14 118 79 15 105 85 6 90 76 7 63 53 15 42 35 22 41 34 27 43 35 28 43 35 28 45 36 26 61 46 26 62 48 28 52 42 30 53 43 17 25 33 9 24 34 10 29 37 14 28 32 25 21 26 14 22 26 11 21 22 15 20 19 17 24 23 22
83 67 5 98 76 8 131 100 8 143 110 5 131 103 4 104 84 4 89 71 6 58 49 7 37 32 11 30 25 13 32 26 15 36 30 17 40 32 21 45 35 25 50 40 28 54 43 31 55 43 32 71 53 29 109 83 25 125 100 17 125 102 8 121 98 8 114 95 5 103 86 4 100 82 4 109 88 8 108 85 9 99 73 8 96 63 15 93 60 19 101 62 26 119 82 25 118 95 8 91 78 6 68 60 7 54 49 7 49 44 11 57 45 19 97 63 29 124 78 35 107 69 34 78 54 28 71 49 15 70 55 7 60 50 8 55 46 13 43 35 21 52 40 28 55 41 29 57 43 28 67 52 22 91 72 18 94 76 16 80 64 20 59 50 16 37 36 12 27 30 10 22 33 8 26 33 16 22 27 18 20 28 8 23 26 15 21 21 18 22 22 19
110 83 6 138 107 5 136 107 5 129 103 4 119 96 4 96 79 5 65 57 6 42 40 7 39 34 14 38 30 19 41 32 22 45 35 24 48 37 26 49 38 27 52 41 30 54 42 30 57 45 29 87 67 23 114 93 11 102 89 4 93 82 4 78 68 4 71 64 3 58 54 4 60 54 4 65 57 6 56 46 7 93 63 21 95 61 30 70 48 22 114 77 17 120 90 10 91 72 4 70 57 6 52 45 10 47 40 13 68 47 20 87 56 26 117 73 30 99 63 30 57 41 28 38 31 27 28 25 17 34 30 11 35 29 13 36 29 17 41 32 23 62 43 27 88 56 27 96 62 28 112 81 17 97 78 6 83 73 6 88 76 12 73 61 17 69 52 20 39 33 14 20 25 9 21 30 9 19 25 13 17 24 9 22 29 11 25 26 19 24 24 19
137 107 7 124 101 4 100 83 3 94 79 3 93 77 5 87 72 7 52 45 8 43 36 12 41 33 18 45 35 23 48 37 25 51 39 27 49 37 25 54 42 30 52 40 26 55 41 28 63 45 22 103 78 11 117 94 2 95 78 2 71 60 2 49 44 1 43 39 3 44 38 3 47 42 12 41 37 8 55 45 15 77 51 21 71 51 17 85 74 13 88 77 10 89 78 7 86 74 13 67 55 6 70 59 7 78 62 7 88 60 19 99 67 25 83 53 18 75 49 22 36 31 23 46 40 34 38 33 27 28 25 17 29 24 17 32 25 17 39 30 22 53 41 30 77 51 29 89 57 17 89 69 11 55 50 12 66 60 9 75 67 7 83 70 13 84 67 17 62 52 20 36 34 15 26 27 18 27 27 24 22 26 16 20 26 12 24 26 20 27 28 25
107 88 4 84 73 3 63 57 3 57 52 4 67 58 5 62 54 7 48 41 11 41 33 15 42 33 21 47 37 24 49 37 25 131 123 117 85 75 65 105 97 88 103 93 83 77 64 49 100 84 57 127 108 58 125 109 53 103 85 30 85 74 34 79 73 44 53 48 26 75 72 55 107 105 95 26 23 4 106 102 89 118 105 88 127 112 68 154 148 101 114 107 52 140 136 93 128 124 81 129 126 85 86 82 19 106 99 49 111 95 52 127 118 95 103 86 52 68 45 14 100 85 67 117 108 98 67 61 54 66 62 58 62 58 55 58 52 47 88 81 71 117 114 99 124 114 94 109 89 54 116 101 64 99 97 76 65 60 29 60 49 8 75 58 16 72 61 15 71 61 15 49 45 19 39 34 23 34 30 25 32 31 27 26 28 19 23 29 16 24 28 19
73 61 4 54 49 4 42 40 4 45 42 5 54 47 7 51 44 9 40 35 9 35 29 13 39 31 18 41 30 18 90 81 72 126 119 112 127 120 113 121 114 107 92 81 70 138 127 111 139 127 91 138 125 86 112 99 65 131 121 97 121 113 92 148 140 123 122 118 108 85 81 68 127 125 116 29 28 2 100 99 81 110 101 78 131 119 70 143 135 87 136 129 87 139 131 86 105 99 42 142 139 97 120 117 73 145 144 108 157 145 116 122 107 82 129 115 95 95 66 35 132 105 79 116 104 84 72 65 52 110 107 104 135 133 129 121 119 109 94 94 72 134 134 117 118 113 92 113 101 69 134 127 112 115 113 103 63 63 47 38 33 7 41 34 13 41 36 15 48 44 14 52 47 17 44 40 19 33 31 20 26 26 18 24 26 15 26 29 23 28 30 23
70 56 9 45 39 6 37 34 5 37 35 6 35 30 8 35 30 9 35 29 11 35 27 14 41 31 20 45 34 22 65 54 44 48 37 25 62 50 38 70 59 48 54 42 27 86 72 35 95 80 19 83 63 18 78 49 18 76 54 32 71 60 45 64 57 40 56 51 24 88 85 44 85 82 33 74 67 3 101 86 21 91 67 7 101 72 7 100 83 28 81 65 29 89 71 24 81 70 8 97 89 35 84 80 38 89 82 41 93 74 36 73 55 23 62 49 29 88 57 29 72 53 34 49 38 18 44 34 18 81 67 52 77 64 45 58 56 33 68 70 48 53 56 34 50 51 22 44 43 17 60 56 38 50 46 35 33 32 20 23 23 8 22 21 8 27 25 12 31 30 13 39 37 16 41 40 17 36 36 16 29 33 12 27 30 11 28 28 18 29 29 25
59 48 8 37 32 6 34 30 7 31 27 8 30 25 9 35 28 12 38 29 16 40 30 19 46 35 23 48 37 24 46 34 21 52 39 26 55 41 26 52 38 24 59 43 24 84 62 12 79 58 8 67 42 10 73 41 12 45 27 10 38 26 8 44 39 2 68 64 2 73 69 0 79 66 1 103 72 9 89 60 10 91 56 17 84 56 18 53 39 12 57 41 13 79 63 9 77 67 5 47 43 2 38 35 3 46 37 6 63 42 12 65 48 11 59 44 11 53 37 19 47 34 19 59 45 12 70 45 16 92 54 22 58 39 23 31 29 19 23 25 9 17 20 6 20 22 8 25 23 12 26 22 13 25 20 14 28 24 20 30 28 25 23 22 15 20 21 9 21 23 9 26 30 11 34 36 13 39 39 15 36 39 12 36 40 11 37 39 13 31 31 16
46 40 8 40 35 8 35 31 9 29 25 9 33 27 12 36 28 15 41 31 19 44 33 21 46 35 23 47 36 23 49 36 24 56 41 26 57 41 25 63 43 24 84 54 22 96 62 17 87 54 17 89 53 17 84 50 16 64 39 15 71 46 14 81 71 5 84 76 4 88 70 5 99 64 13 79 52 15 53 35 16 62 41 20 56 39 16 69 54 9 68 49 15 81 59 15 57 45 9 32 28 9 28 25 11 32 27 16 39 30 20 40 30 16 47 35 17 56 39 21 77 49 22 94 61 15 98 59 24 97 61 29 40 32 27 29 26 25 25 24 19 21 21 14 21 20 14 27 23 17 30 25 19 31 26 22 32 28 24 32 28 25 28 26 24 21 22 15 16 20 7 19 23 8 25 29 10 29 34 10 28 30 11 29 34 9 32 37 11 31 35 12
37 33 7 35 32 8 33 29 9 33 29 10 36 29 14 38 29 17 42 32 20 44 34 21 48 37 24 48 36 24 53 39 24 59 41 25 74 48 25 91 56 25 113 67 25 115 68 20 106 63 20 84 52 18 94 57 20 105 62 20 89 61 9 84 74 3 90 68 7 92 62 9 72 48 14 47 34 13 78 51 21 61 40 17 76 51 17 47 36 13 45 33 14 75 51 17 66 48 12 37 30 11 30 24 14 40 32 23 42 34 26 42 33 24 50 36 24 65 43 24 86 53 24 107 63 24 102 62 28 54 38 25 33 28 23 31 28 25 30 27 25 24 22 19 27 24 19 30 25 19 33 27 21 35 30 25 32 27 24 29 27 24 26 24 22 24 24 22 17 20 10 14 17 7 20 21 10 27 28 18 25 27 16 23 25 9 27 34 8 27 33 9
